<svg id="visual" viewBox="0 0 4000 9999" width="4000" height="9999" xmlns="http://www.w3.org/2000/svg" xmlns:xlink="http://www.w3.org/1999/xlink" version="1.1"><rect x="0" y="0" width="4000" height="9999" fill="#000000"></rect><path d="M3478 9999L3469.2 9934.8C3460.3 9870.7 3442.7 9742.3 3464.5 9614.2C3486.3 9486 3547.7 9358 3557.7 9229.8C3567.7 9101.7 3526.3 8973.3 3543.3 8845.2C3560.3 8717 3635.7 8589 3656.5 8460.8C3677.3 8332.7 3643.7 8204.3 3648.7 8076.2C3653.7 7948 3697.3 7820 3728.2 7691.8C3759 7563.7 3777 7435.3 3765.8 7307C3754.7 7178.7 3714.3 7050.3 3712.2 6922.2C3710 6794 3746 6666 3713.8 6537.8C3681.7 6409.7 3581.3 6281.3 3557.2 6153.2C3533 6025 3585 5897 3619 5768.8C3653 5640.7 3669 5512.3 3649.8 5384.2C3630.7 5256 3576.3 5128 3567.3 4999.8C3558.3 4871.7 3594.7 4743.3 3600 4615C3605.3 4486.7 3579.7 4358.3 3602.3 4230.2C3625 4102 3696 3974 3705.5 3845.8C3715 3717.7 3663 3589.3 3654 3461.2C3645 3333 3679 3205 3645.8 3076.8C3612.7 2948.7 3512.3 2820.3 3485.7 2692C3459 2563.7 3506 2435.3 3513.3 2307.2C3520.7 2179 3488.3 2051 3525.5 1922.8C3562.7 1794.7 3669.3 1666.3 3702.3 1538.2C3735.3 1410 3694.7 1282 3656.3 1153.8C3618 1025.7 3582 897.3 3577 769.2C3572 641 3598 513 3595.2 384.8C3592.3 256.7 3560.7 128.3 3544.8 64.2L3529 0" fill="none" stroke="#fdbe01" stroke-width="40" stroke-linecap="round" stroke-linejoin="miter"></path></svg>