<svg id="visual" viewBox="0 0 4000 9999" width="4000" height="9999" xmlns="http://www.w3.org/2000/svg" xmlns:xlink="http://www.w3.org/1999/xlink" version="1.1"><rect x="0" y="0" width="4000" height="9999" fill="#000000"></rect><path d="M3474 9999L3524.8 9934.8C3575.7 9870.7 3677.3 9742.3 3681 9614.2C3684.7 9486 3590.3 9358 3542.5 9229.8C3494.7 9101.7 3493.3 8973.3 3479.5 8845.2C3465.7 8717 3439.3 8589 3442 8460.8C3444.7 8332.7 3476.3 8204.3 3518.5 8076.2C3560.7 7948 3613.3 7820 3606.8 7691.8C3600.3 7563.7 3534.7 7435.3 3507.2 7307C3479.7 7178.7 3490.3 7050.3 3501.5 6922.2C3512.7 6794 3524.3 6666 3561.7 6537.8C3599 6409.7 3662 6281.3 3681 6153.2C3700 6025 3675 5897 3636.5 5768.8C3598 5640.7 3546 5512.3 3525 5384.2C3504 5256 3514 5128 3544.5 4999.8C3575 4871.7 3626 4743.3 3616 4615C3606 4486.7 3535 4358.3 3514.8 4230.2C3494.7 4102 3525.3 3974 3537.3 3845.8C3549.3 3717.7 3542.7 3589.3 3533.8 3461.2C3525 3333 3514 3205 3493.3 3076.8C3472.7 2948.7 3442.3 2820.3 3453.5 2692C3464.7 2563.7 3517.3 2435.3 3547 2307.2C3576.7 2179 3583.3 2051 3567.2 1922.8C3551 1794.7 3512 1666.3 3491.2 1538.2C3470.3 1410 3467.7 1282 3467 1153.8C3466.3 1025.7 3467.7 897.3 3488.8 769.2C3510 641 3551 513 3605.7 384.8C3660.3 256.7 3728.7 128.3 3762.8 64.2L3797 0" fill="none" stroke-linecap="round" stroke-linejoin="miter" stroke="#fdbe01" stroke-width="40"></path></svg>