<?xml version="1.0" standalone="no"?><svg xmlns="http://www.w3.org/2000/svg" viewBox="0 0 1440 320"><path fill="#fdbe01" fill-opacity="1" d="M0,64L15,64C30,64,60,64,90,69.3C120,75,150,85,180,128C210,171,240,245,270,240C300,235,330,149,360,106.7C390,64,420,64,450,101.3C480,139,510,213,540,224C570,235,600,181,630,154.7C660,128,690,128,720,149.3C750,171,780,213,810,208C840,203,870,149,900,154.7C930,160,960,224,990,245.3C1020,267,1050,245,1080,202.7C1110,160,1140,96,1170,106.7C1200,117,1230,203,1260,197.3C1290,192,1320,96,1350,53.3C1380,11,1410,21,1425,26.7L1440,32L1440,0L1425,0C1410,0,1380,0,1350,0C1320,0,1290,0,1260,0C1230,0,1200,0,1170,0C1140,0,1110,0,1080,0C1050,0,1020,0,990,0C960,0,930,0,900,0C870,0,840,0,810,0C780,0,750,0,720,0C690,0,660,0,630,0C600,0,570,0,540,0C510,0,480,0,450,0C420,0,390,0,360,0C330,0,300,0,270,0C240,0,210,0,180,0C150,0,120,0,90,0C60,0,30,0,15,0L0,0Z"></path></svg>